solid dummy_character_lamp_shade
  facet normal -0.679180 0.727693 0.095803
    outer loop
      vertex -0.030000 0.032000 0.000000
      vertex 0.000000 0.057956 0.015529
      vertex 0.000000 0.060000 0.000000
    endloop
  endfacet
  facet normal -0.679180 0.727693 0.095803
    outer loop
      vertex -0.030000 0.032000 0.000000
      vertex -0.030000 0.030910 0.008282
      vertex 0.000000 0.057956 0.015529
    endloop
  endfacet
  facet normal -0.679180 0.678102 0.280879
    outer loop
      vertex -0.030000 0.030910 0.008282
      vertex 0.000000 0.051962 0.030000
      vertex 0.000000 0.057956 0.015529
    endloop
  endfacet
  facet normal -0.679180 0.678102 0.280879
    outer loop
      vertex -0.030000 0.030910 0.008282
      vertex -0.030000 0.027713 0.016000
      vertex 0.000000 0.051962 0.030000
    endloop
  endfacet
  facet normal -0.679180 0.582299 0.446814
    outer loop
      vertex -0.030000 0.027713 0.016000
      vertex 0.000000 0.042426 0.042426
      vertex 0.000000 0.051962 0.030000
    endloop
  endfacet
  facet normal -0.679180 0.582299 0.446814
    outer loop
      vertex -0.030000 0.027713 0.016000
      vertex -0.030000 0.022627 0.022627
      vertex 0.000000 0.042426 0.042426
    endloop
  endfacet
  facet normal -0.679180 0.446814 0.582299
    outer loop
      vertex -0.030000 0.022627 0.022627
      vertex 0.000000 0.030000 0.051962
      vertex 0.000000 0.042426 0.042426
    endloop
  endfacet
  facet normal -0.679180 0.446814 0.582299
    outer loop
      vertex -0.030000 0.022627 0.022627
      vertex -0.030000 0.016000 0.027713
      vertex 0.000000 0.030000 0.051962
    endloop
  endfacet
  facet normal -0.679180 0.280879 0.678102
    outer loop
      vertex -0.030000 0.016000 0.027713
      vertex 0.000000 0.015529 0.057956
      vertex 0.000000 0.030000 0.051962
    endloop
  endfacet
  facet normal -0.679180 0.280879 0.678102
    outer loop
      vertex -0.030000 0.016000 0.027713
      vertex -0.030000 0.008282 0.030910
      vertex 0.000000 0.015529 0.057956
    endloop
  endfacet
  facet normal -0.679180 0.095803 0.727693
    outer loop
      vertex -0.030000 0.008282 0.030910
      vertex 0.000000 0.000000 0.060000
      vertex 0.000000 0.015529 0.057956
    endloop
  endfacet
  facet normal -0.679180 0.095803 0.727693
    outer loop
      vertex -0.030000 0.008282 0.030910
      vertex -0.030000 0.000000 0.032000
      vertex 0.000000 0.000000 0.060000
    endloop
  endfacet
  facet normal -0.679180 -0.095803 0.727693
    outer loop
      vertex -0.030000 0.000000 0.032000
      vertex 0.000000 -0.015529 0.057956
      vertex 0.000000 0.000000 0.060000
    endloop
  endfacet
  facet normal -0.679180 -0.095803 0.727693
    outer loop
      vertex -0.030000 0.000000 0.032000
      vertex -0.030000 -0.008282 0.030910
      vertex 0.000000 -0.015529 0.057956
    endloop
  endfacet
  facet normal -0.679180 -0.280879 0.678102
    outer loop
      vertex -0.030000 -0.008282 0.030910
      vertex 0.000000 -0.030000 0.051962
      vertex 0.000000 -0.015529 0.057956
    endloop
  endfacet
  facet normal -0.679180 -0.280879 0.678102
    outer loop
      vertex -0.030000 -0.008282 0.030910
      vertex -0.030000 -0.016000 0.027713
      vertex 0.000000 -0.030000 0.051962
    endloop
  endfacet
  facet normal -0.679180 -0.446814 0.582299
    outer loop
      vertex -0.030000 -0.016000 0.027713
      vertex 0.000000 -0.042426 0.042426
      vertex 0.000000 -0.030000 0.051962
    endloop
  endfacet
  facet normal -0.679180 -0.446814 0.582299
    outer loop
      vertex -0.030000 -0.016000 0.027713
      vertex -0.030000 -0.022627 0.022627
      vertex 0.000000 -0.042426 0.042426
    endloop
  endfacet
  facet normal -0.679180 -0.582299 0.446814
    outer loop
      vertex -0.030000 -0.022627 0.022627
      vertex 0.000000 -0.051962 0.030000
      vertex 0.000000 -0.042426 0.042426
    endloop
  endfacet
  facet normal -0.679180 -0.582299 0.446814
    outer loop
      vertex -0.030000 -0.022627 0.022627
      vertex -0.030000 -0.027713 0.016000
      vertex 0.000000 -0.051962 0.030000
    endloop
  endfacet
  facet normal -0.679180 -0.678102 0.280879
    outer loop
      vertex -0.030000 -0.027713 0.016000
      vertex 0.000000 -0.057956 0.015529
      vertex 0.000000 -0.051962 0.030000
    endloop
  endfacet
  facet normal -0.679180 -0.678102 0.280879
    outer loop
      vertex -0.030000 -0.027713 0.016000
      vertex -0.030000 -0.030910 0.008282
      vertex 0.000000 -0.057956 0.015529
    endloop
  endfacet
  facet normal -0.679180 -0.727693 0.095803
    outer loop
      vertex -0.030000 -0.030910 0.008282
      vertex 0.000000 -0.060000 0.000000
      vertex 0.000000 -0.057956 0.015529
    endloop
  endfacet
  facet normal -0.679180 -0.727693 0.095803
    outer loop
      vertex -0.030000 -0.030910 0.008282
      vertex -0.030000 -0.032000 0.000000
      vertex 0.000000 -0.060000 0.000000
    endloop
  endfacet
  facet normal -0.679180 -0.727693 -0.095803
    outer loop
      vertex -0.030000 -0.032000 0.000000
      vertex 0.000000 -0.057956 -0.015529
      vertex 0.000000 -0.060000 0.000000
    endloop
  endfacet
  facet normal -0.679180 -0.727693 -0.095803
    outer loop
      vertex -0.030000 -0.032000 0.000000
      vertex -0.030000 -0.030910 -0.008282
      vertex 0.000000 -0.057956 -0.015529
    endloop
  endfacet
  facet normal -0.679180 -0.678102 -0.280879
    outer loop
      vertex -0.030000 -0.030910 -0.008282
      vertex 0.000000 -0.051962 -0.030000
      vertex 0.000000 -0.057956 -0.015529
    endloop
  endfacet
  facet normal -0.679180 -0.678102 -0.280879
    outer loop
      vertex -0.030000 -0.030910 -0.008282
      vertex -0.030000 -0.027713 -0.016000
      vertex 0.000000 -0.051962 -0.030000
    endloop
  endfacet
  facet normal -0.679180 -0.582299 -0.446814
    outer loop
      vertex -0.030000 -0.027713 -0.016000
      vertex 0.000000 -0.042426 -0.042426
      vertex 0.000000 -0.051962 -0.030000
    endloop
  endfacet
  facet normal -0.679180 -0.582299 -0.446814
    outer loop
      vertex -0.030000 -0.027713 -0.016000
      vertex -0.030000 -0.022627 -0.022627
      vertex 0.000000 -0.042426 -0.042426
    endloop
  endfacet
  facet normal -0.679180 -0.446814 -0.582299
    outer loop
      vertex -0.030000 -0.022627 -0.022627
      vertex 0.000000 -0.030000 -0.051962
      vertex 0.000000 -0.042426 -0.042426
    endloop
  endfacet
  facet normal -0.679180 -0.446814 -0.582299
    outer loop
      vertex -0.030000 -0.022627 -0.022627
      vertex -0.030000 -0.016000 -0.027713
      vertex 0.000000 -0.030000 -0.051962
    endloop
  endfacet
  facet normal -0.679180 -0.280879 -0.678102
    outer loop
      vertex -0.030000 -0.016000 -0.027713
      vertex 0.000000 -0.015529 -0.057956
      vertex 0.000000 -0.030000 -0.051962
    endloop
  endfacet
  facet normal -0.679180 -0.280879 -0.678102
    outer loop
      vertex -0.030000 -0.016000 -0.027713
      vertex -0.030000 -0.008282 -0.030910
      vertex 0.000000 -0.015529 -0.057956
    endloop
  endfacet
  facet normal -0.679180 -0.095803 -0.727693
    outer loop
      vertex -0.030000 -0.008282 -0.030910
      vertex 0.000000 0.000000 -0.060000
      vertex 0.000000 -0.015529 -0.057956
    endloop
  endfacet
  facet normal -0.679180 -0.095803 -0.727693
    outer loop
      vertex -0.030000 -0.008282 -0.030910
      vertex -0.030000 0.000000 -0.032000
      vertex 0.000000 0.000000 -0.060000
    endloop
  endfacet
  facet normal -0.679180 0.095803 -0.727693
    outer loop
      vertex -0.030000 0.000000 -0.032000
      vertex 0.000000 0.015529 -0.057956
      vertex 0.000000 0.000000 -0.060000
    endloop
  endfacet
  facet normal -0.679180 0.095803 -0.727693
    outer loop
      vertex -0.030000 0.000000 -0.032000
      vertex -0.030000 0.008282 -0.030910
      vertex 0.000000 0.015529 -0.057956
    endloop
  endfacet
  facet normal -0.679180 0.280879 -0.678102
    outer loop
      vertex -0.030000 0.008282 -0.030910
      vertex 0.000000 0.030000 -0.051962
      vertex 0.000000 0.015529 -0.057956
    endloop
  endfacet
  facet normal -0.679180 0.280879 -0.678102
    outer loop
      vertex -0.030000 0.008282 -0.030910
      vertex -0.030000 0.016000 -0.027713
      vertex 0.000000 0.030000 -0.051962
    endloop
  endfacet
  facet normal -0.679180 0.446814 -0.582299
    outer loop
      vertex -0.030000 0.016000 -0.027713
      vertex 0.000000 0.042426 -0.042426
      vertex 0.000000 0.030000 -0.051962
    endloop
  endfacet
  facet normal -0.679180 0.446814 -0.582299
    outer loop
      vertex -0.030000 0.016000 -0.027713
      vertex -0.030000 0.022627 -0.022627
      vertex 0.000000 0.042426 -0.042426
    endloop
  endfacet
  facet normal -0.679180 0.582299 -0.446814
    outer loop
      vertex -0.030000 0.022627 -0.022627
      vertex 0.000000 0.051962 -0.030000
      vertex 0.000000 0.042426 -0.042426
    endloop
  endfacet
  facet normal -0.679180 0.582299 -0.446814
    outer loop
      vertex -0.030000 0.022627 -0.022627
      vertex -0.030000 0.027713 -0.016000
      vertex 0.000000 0.051962 -0.030000
    endloop
  endfacet
  facet normal -0.679180 0.678102 -0.280879
    outer loop
      vertex -0.030000 0.027713 -0.016000
      vertex 0.000000 0.057956 -0.015529
      vertex 0.000000 0.051962 -0.030000
    endloop
  endfacet
  facet normal -0.679180 0.678102 -0.280879
    outer loop
      vertex -0.030000 0.027713 -0.016000
      vertex -0.030000 0.030910 -0.008282
      vertex 0.000000 0.057956 -0.015529
    endloop
  endfacet
  facet normal -0.679180 0.727693 -0.095803
    outer loop
      vertex -0.030000 0.030910 -0.008282
      vertex 0.000000 0.060000 0.000000
      vertex 0.000000 0.057956 -0.015529
    endloop
  endfacet
  facet normal -0.679180 0.727693 -0.095803
    outer loop
      vertex -0.030000 0.030910 -0.008282
      vertex -0.030000 0.032000 0.000000
      vertex 0.000000 0.060000 0.000000
    endloop
  endfacet
  facet normal -0.475686 0.872090 0.114813
    outer loop
      vertex 0.000000 0.060000 0.000000
      vertex 0.055000 0.086933 0.023294
      vertex 0.055000 0.090000 0.000000
    endloop
  endfacet
  facet normal -0.475686 0.872090 0.114813
    outer loop
      vertex 0.000000 0.060000 0.000000
      vertex 0.000000 0.057956 0.015529
      vertex 0.055000 0.086933 0.023294
    endloop
  endfacet
  facet normal -0.475686 0.812659 0.336614
    outer loop
      vertex 0.000000 0.057956 0.015529
      vertex 0.055000 0.077942 0.045000
      vertex 0.055000 0.086933 0.023294
    endloop
  endfacet
  facet normal -0.475686 0.812659 0.336614
    outer loop
      vertex 0.000000 0.057956 0.015529
      vertex 0.000000 0.051962 0.030000
      vertex 0.055000 0.077942 0.045000
    endloop
  endfacet
  facet normal -0.475686 0.697846 0.535476
    outer loop
      vertex 0.000000 0.051962 0.030000
      vertex 0.055000 0.063640 0.063640
      vertex 0.055000 0.077942 0.045000
    endloop
  endfacet
  facet normal -0.475686 0.697846 0.535476
    outer loop
      vertex 0.000000 0.051962 0.030000
      vertex 0.000000 0.042426 0.042426
      vertex 0.055000 0.063640 0.063640
    endloop
  endfacet
  facet normal -0.475686 0.535476 0.697846
    outer loop
      vertex 0.000000 0.042426 0.042426
      vertex 0.055000 0.045000 0.077942
      vertex 0.055000 0.063640 0.063640
    endloop
  endfacet
  facet normal -0.475686 0.535476 0.697846
    outer loop
      vertex 0.000000 0.042426 0.042426
      vertex 0.000000 0.030000 0.051962
      vertex 0.055000 0.045000 0.077942
    endloop
  endfacet
  facet normal -0.475686 0.336614 0.812659
    outer loop
      vertex 0.000000 0.030000 0.051962
      vertex 0.055000 0.023294 0.086933
      vertex 0.055000 0.045000 0.077942
    endloop
  endfacet
  facet normal -0.475686 0.336614 0.812659
    outer loop
      vertex 0.000000 0.030000 0.051962
      vertex 0.000000 0.015529 0.057956
      vertex 0.055000 0.023294 0.086933
    endloop
  endfacet
  facet normal -0.475686 0.114813 0.872090
    outer loop
      vertex 0.000000 0.015529 0.057956
      vertex 0.055000 0.000000 0.090000
      vertex 0.055000 0.023294 0.086933
    endloop
  endfacet
  facet normal -0.475686 0.114813 0.872090
    outer loop
      vertex 0.000000 0.015529 0.057956
      vertex 0.000000 0.000000 0.060000
      vertex 0.055000 0.000000 0.090000
    endloop
  endfacet
  facet normal -0.475686 -0.114813 0.872090
    outer loop
      vertex 0.000000 0.000000 0.060000
      vertex 0.055000 -0.023294 0.086933
      vertex 0.055000 0.000000 0.090000
    endloop
  endfacet
  facet normal -0.475686 -0.114813 0.872090
    outer loop
      vertex 0.000000 0.000000 0.060000
      vertex 0.000000 -0.015529 0.057956
      vertex 0.055000 -0.023294 0.086933
    endloop
  endfacet
  facet normal -0.475686 -0.336614 0.812659
    outer loop
      vertex 0.000000 -0.015529 0.057956
      vertex 0.055000 -0.045000 0.077942
      vertex 0.055000 -0.023294 0.086933
    endloop
  endfacet
  facet normal -0.475686 -0.336614 0.812659
    outer loop
      vertex 0.000000 -0.015529 0.057956
      vertex 0.000000 -0.030000 0.051962
      vertex 0.055000 -0.045000 0.077942
    endloop
  endfacet
  facet normal -0.475686 -0.535476 0.697846
    outer loop
      vertex 0.000000 -0.030000 0.051962
      vertex 0.055000 -0.063640 0.063640
      vertex 0.055000 -0.045000 0.077942
    endloop
  endfacet
  facet normal -0.475686 -0.535476 0.697846
    outer loop
      vertex 0.000000 -0.030000 0.051962
      vertex 0.000000 -0.042426 0.042426
      vertex 0.055000 -0.063640 0.063640
    endloop
  endfacet
  facet normal -0.475686 -0.697846 0.535476
    outer loop
      vertex 0.000000 -0.042426 0.042426
      vertex 0.055000 -0.077942 0.045000
      vertex 0.055000 -0.063640 0.063640
    endloop
  endfacet
  facet normal -0.475686 -0.697846 0.535476
    outer loop
      vertex 0.000000 -0.042426 0.042426
      vertex 0.000000 -0.051962 0.030000
      vertex 0.055000 -0.077942 0.045000
    endloop
  endfacet
  facet normal -0.475686 -0.812659 0.336614
    outer loop
      vertex 0.000000 -0.051962 0.030000
      vertex 0.055000 -0.086933 0.023294
      vertex 0.055000 -0.077942 0.045000
    endloop
  endfacet
  facet normal -0.475686 -0.812659 0.336614
    outer loop
      vertex 0.000000 -0.051962 0.030000
      vertex 0.000000 -0.057956 0.015529
      vertex 0.055000 -0.086933 0.023294
    endloop
  endfacet
  facet normal -0.475686 -0.872090 0.114813
    outer loop
      vertex 0.000000 -0.057956 0.015529
      vertex 0.055000 -0.090000 0.000000
      vertex 0.055000 -0.086933 0.023294
    endloop
  endfacet
  facet normal -0.475686 -0.872090 0.114813
    outer loop
      vertex 0.000000 -0.057956 0.015529
      vertex 0.000000 -0.060000 0.000000
      vertex 0.055000 -0.090000 0.000000
    endloop
  endfacet
  facet normal -0.475686 -0.872090 -0.114813
    outer loop
      vertex 0.000000 -0.060000 0.000000
      vertex 0.055000 -0.086933 -0.023294
      vertex 0.055000 -0.090000 0.000000
    endloop
  endfacet
  facet normal -0.475686 -0.872090 -0.114813
    outer loop
      vertex 0.000000 -0.060000 0.000000
      vertex 0.000000 -0.057956 -0.015529
      vertex 0.055000 -0.086933 -0.023294
    endloop
  endfacet
  facet normal -0.475686 -0.812659 -0.336614
    outer loop
      vertex 0.000000 -0.057956 -0.015529
      vertex 0.055000 -0.077942 -0.045000
      vertex 0.055000 -0.086933 -0.023294
    endloop
  endfacet
  facet normal -0.475686 -0.812659 -0.336614
    outer loop
      vertex 0.000000 -0.057956 -0.015529
      vertex 0.000000 -0.051962 -0.030000
      vertex 0.055000 -0.077942 -0.045000
    endloop
  endfacet
  facet normal -0.475686 -0.697846 -0.535476
    outer loop
      vertex 0.000000 -0.051962 -0.030000
      vertex 0.055000 -0.063640 -0.063640
      vertex 0.055000 -0.077942 -0.045000
    endloop
  endfacet
  facet normal -0.475686 -0.697846 -0.535476
    outer loop
      vertex 0.000000 -0.051962 -0.030000
      vertex 0.000000 -0.042426 -0.042426
      vertex 0.055000 -0.063640 -0.063640
    endloop
  endfacet
  facet normal -0.475686 -0.535476 -0.697846
    outer loop
      vertex 0.000000 -0.042426 -0.042426
      vertex 0.055000 -0.045000 -0.077942
      vertex 0.055000 -0.063640 -0.063640
    endloop
  endfacet
  facet normal -0.475686 -0.535476 -0.697846
    outer loop
      vertex 0.000000 -0.042426 -0.042426
      vertex 0.000000 -0.030000 -0.051962
      vertex 0.055000 -0.045000 -0.077942
    endloop
  endfacet
  facet normal -0.475686 -0.336614 -0.812659
    outer loop
      vertex 0.000000 -0.030000 -0.051962
      vertex 0.055000 -0.023294 -0.086933
      vertex 0.055000 -0.045000 -0.077942
    endloop
  endfacet
  facet normal -0.475686 -0.336614 -0.812659
    outer loop
      vertex 0.000000 -0.030000 -0.051962
      vertex 0.000000 -0.015529 -0.057956
      vertex 0.055000 -0.023294 -0.086933
    endloop
  endfacet
  facet normal -0.475686 -0.114813 -0.872090
    outer loop
      vertex 0.000000 -0.015529 -0.057956
      vertex 0.055000 0.000000 -0.090000
      vertex 0.055000 -0.023294 -0.086933
    endloop
  endfacet
  facet normal -0.475686 -0.114813 -0.872090
    outer loop
      vertex 0.000000 -0.015529 -0.057956
      vertex 0.000000 0.000000 -0.060000
      vertex 0.055000 0.000000 -0.090000
    endloop
  endfacet
  facet normal -0.475686 0.114813 -0.872090
    outer loop
      vertex 0.000000 0.000000 -0.060000
      vertex 0.055000 0.023294 -0.086933
      vertex 0.055000 0.000000 -0.090000
    endloop
  endfacet
  facet normal -0.475686 0.114813 -0.872090
    outer loop
      vertex 0.000000 0.000000 -0.060000
      vertex 0.000000 0.015529 -0.057956
      vertex 0.055000 0.023294 -0.086933
    endloop
  endfacet
  facet normal -0.475686 0.336614 -0.812659
    outer loop
      vertex 0.000000 0.015529 -0.057956
      vertex 0.055000 0.045000 -0.077942
      vertex 0.055000 0.023294 -0.086933
    endloop
  endfacet
  facet normal -0.475686 0.336614 -0.812659
    outer loop
      vertex 0.000000 0.015529 -0.057956
      vertex 0.000000 0.030000 -0.051962
      vertex 0.055000 0.045000 -0.077942
    endloop
  endfacet
  facet normal -0.475686 0.535476 -0.697846
    outer loop
      vertex 0.000000 0.030000 -0.051962
      vertex 0.055000 0.063640 -0.063640
      vertex 0.055000 0.045000 -0.077942
    endloop
  endfacet
  facet normal -0.475686 0.535476 -0.697846
    outer loop
      vertex 0.000000 0.030000 -0.051962
      vertex 0.000000 0.042426 -0.042426
      vertex 0.055000 0.063640 -0.063640
    endloop
  endfacet
  facet normal -0.475686 0.697846 -0.535476
    outer loop
      vertex 0.000000 0.042426 -0.042426
      vertex 0.055000 0.077942 -0.045000
      vertex 0.055000 0.063640 -0.063640
    endloop
  endfacet
  facet normal -0.475686 0.697846 -0.535476
    outer loop
      vertex 0.000000 0.042426 -0.042426
      vertex 0.000000 0.051962 -0.030000
      vertex 0.055000 0.077942 -0.045000
    endloop
  endfacet
  facet normal -0.475686 0.812659 -0.336614
    outer loop
      vertex 0.000000 0.051962 -0.030000
      vertex 0.055000 0.086933 -0.023294
      vertex 0.055000 0.077942 -0.045000
    endloop
  endfacet
  facet normal -0.475686 0.812659 -0.336614
    outer loop
      vertex 0.000000 0.051962 -0.030000
      vertex 0.000000 0.057956 -0.015529
      vertex 0.055000 0.086933 -0.023294
    endloop
  endfacet
  facet normal -0.475686 0.872090 -0.114813
    outer loop
      vertex 0.000000 0.057956 -0.015529
      vertex 0.055000 0.090000 0.000000
      vertex 0.055000 0.086933 -0.023294
    endloop
  endfacet
  facet normal -0.475686 0.872090 -0.114813
    outer loop
      vertex 0.000000 0.057956 -0.015529
      vertex 0.000000 0.060000 0.000000
      vertex 0.055000 0.090000 0.000000
    endloop
  endfacet
  facet normal -0.264757 0.956065 0.125868
    outer loop
      vertex 0.055000 0.090000 0.000000
      vertex 0.120000 0.104320 0.027952
      vertex 0.120000 0.108000 0.000000
    endloop
  endfacet
  facet normal -0.264757 0.956065 0.125868
    outer loop
      vertex 0.055000 0.090000 0.000000
      vertex 0.055000 0.086933 0.023294
      vertex 0.120000 0.104320 0.027952
    endloop
  endfacet
  facet normal -0.264757 0.890911 0.369027
    outer loop
      vertex 0.055000 0.086933 0.023294
      vertex 0.120000 0.093531 0.054000
      vertex 0.120000 0.104320 0.027952
    endloop
  endfacet
  facet normal -0.264757 0.890911 0.369027
    outer loop
      vertex 0.055000 0.086933 0.023294
      vertex 0.055000 0.077942 0.045000
      vertex 0.120000 0.093531 0.054000
    endloop
  endfacet
  facet normal -0.264757 0.765043 0.587038
    outer loop
      vertex 0.055000 0.077942 0.045000
      vertex 0.120000 0.076368 0.076368
      vertex 0.120000 0.093531 0.054000
    endloop
  endfacet
  facet normal -0.264757 0.765043 0.587038
    outer loop
      vertex 0.055000 0.077942 0.045000
      vertex 0.055000 0.063640 0.063640
      vertex 0.120000 0.076368 0.076368
    endloop
  endfacet
  facet normal -0.264757 0.587038 0.765043
    outer loop
      vertex 0.055000 0.063640 0.063640
      vertex 0.120000 0.054000 0.093531
      vertex 0.120000 0.076368 0.076368
    endloop
  endfacet
  facet normal -0.264757 0.587038 0.765043
    outer loop
      vertex 0.055000 0.063640 0.063640
      vertex 0.055000 0.045000 0.077942
      vertex 0.120000 0.054000 0.093531
    endloop
  endfacet
  facet normal -0.264757 0.369027 0.890911
    outer loop
      vertex 0.055000 0.045000 0.077942
      vertex 0.120000 0.027952 0.104320
      vertex 0.120000 0.054000 0.093531
    endloop
  endfacet
  facet normal -0.264757 0.369027 0.890911
    outer loop
      vertex 0.055000 0.045000 0.077942
      vertex 0.055000 0.023294 0.086933
      vertex 0.120000 0.027952 0.104320
    endloop
  endfacet
  facet normal -0.264757 0.125868 0.956065
    outer loop
      vertex 0.055000 0.023294 0.086933
      vertex 0.120000 0.000000 0.108000
      vertex 0.120000 0.027952 0.104320
    endloop
  endfacet
  facet normal -0.264757 0.125868 0.956065
    outer loop
      vertex 0.055000 0.023294 0.086933
      vertex 0.055000 0.000000 0.090000
      vertex 0.120000 0.000000 0.108000
    endloop
  endfacet
  facet normal -0.264757 -0.125868 0.956065
    outer loop
      vertex 0.055000 0.000000 0.090000
      vertex 0.120000 -0.027952 0.104320
      vertex 0.120000 0.000000 0.108000
    endloop
  endfacet
  facet normal -0.264757 -0.125868 0.956065
    outer loop
      vertex 0.055000 0.000000 0.090000
      vertex 0.055000 -0.023294 0.086933
      vertex 0.120000 -0.027952 0.104320
    endloop
  endfacet
  facet normal -0.264757 -0.369027 0.890911
    outer loop
      vertex 0.055000 -0.023294 0.086933
      vertex 0.120000 -0.054000 0.093531
      vertex 0.120000 -0.027952 0.104320
    endloop
  endfacet
  facet normal -0.264757 -0.369027 0.890911
    outer loop
      vertex 0.055000 -0.023294 0.086933
      vertex 0.055000 -0.045000 0.077942
      vertex 0.120000 -0.054000 0.093531
    endloop
  endfacet
  facet normal -0.264757 -0.587038 0.765043
    outer loop
      vertex 0.055000 -0.045000 0.077942
      vertex 0.120000 -0.076368 0.076368
      vertex 0.120000 -0.054000 0.093531
    endloop
  endfacet
  facet normal -0.264757 -0.587038 0.765043
    outer loop
      vertex 0.055000 -0.045000 0.077942
      vertex 0.055000 -0.063640 0.063640
      vertex 0.120000 -0.076368 0.076368
    endloop
  endfacet
  facet normal -0.264757 -0.765043 0.587038
    outer loop
      vertex 0.055000 -0.063640 0.063640
      vertex 0.120000 -0.093531 0.054000
      vertex 0.120000 -0.076368 0.076368
    endloop
  endfacet
  facet normal -0.264757 -0.765043 0.587038
    outer loop
      vertex 0.055000 -0.063640 0.063640
      vertex 0.055000 -0.077942 0.045000
      vertex 0.120000 -0.093531 0.054000
    endloop
  endfacet
  facet normal -0.264757 -0.890911 0.369027
    outer loop
      vertex 0.055000 -0.077942 0.045000
      vertex 0.120000 -0.104320 0.027952
      vertex 0.120000 -0.093531 0.054000
    endloop
  endfacet
  facet normal -0.264757 -0.890911 0.369027
    outer loop
      vertex 0.055000 -0.077942 0.045000
      vertex 0.055000 -0.086933 0.023294
      vertex 0.120000 -0.104320 0.027952
    endloop
  endfacet
  facet normal -0.264757 -0.956065 0.125868
    outer loop
      vertex 0.055000 -0.086933 0.023294
      vertex 0.120000 -0.108000 0.000000
      vertex 0.120000 -0.104320 0.027952
    endloop
  endfacet
  facet normal -0.264757 -0.956065 0.125868
    outer loop
      vertex 0.055000 -0.086933 0.023294
      vertex 0.055000 -0.090000 0.000000
      vertex 0.120000 -0.108000 0.000000
    endloop
  endfacet
  facet normal -0.264757 -0.956065 -0.125868
    outer loop
      vertex 0.055000 -0.090000 0.000000
      vertex 0.120000 -0.104320 -0.027952
      vertex 0.120000 -0.108000 0.000000
    endloop
  endfacet
  facet normal -0.264757 -0.956065 -0.125868
    outer loop
      vertex 0.055000 -0.090000 0.000000
      vertex 0.055000 -0.086933 -0.023294
      vertex 0.120000 -0.104320 -0.027952
    endloop
  endfacet
  facet normal -0.264757 -0.890911 -0.369027
    outer loop
      vertex 0.055000 -0.086933 -0.023294
      vertex 0.120000 -0.093531 -0.054000
      vertex 0.120000 -0.104320 -0.027952
    endloop
  endfacet
  facet normal -0.264757 -0.890911 -0.369027
    outer loop
      vertex 0.055000 -0.086933 -0.023294
      vertex 0.055000 -0.077942 -0.045000
      vertex 0.120000 -0.093531 -0.054000
    endloop
  endfacet
  facet normal -0.264757 -0.765043 -0.587038
    outer loop
      vertex 0.055000 -0.077942 -0.045000
      vertex 0.120000 -0.076368 -0.076368
      vertex 0.120000 -0.093531 -0.054000
    endloop
  endfacet
  facet normal -0.264757 -0.765043 -0.587038
    outer loop
      vertex 0.055000 -0.077942 -0.045000
      vertex 0.055000 -0.063640 -0.063640
      vertex 0.120000 -0.076368 -0.076368
    endloop
  endfacet
  facet normal -0.264757 -0.587038 -0.765043
    outer loop
      vertex 0.055000 -0.063640 -0.063640
      vertex 0.120000 -0.054000 -0.093531
      vertex 0.120000 -0.076368 -0.076368
    endloop
  endfacet
  facet normal -0.264757 -0.587038 -0.765043
    outer loop
      vertex 0.055000 -0.063640 -0.063640
      vertex 0.055000 -0.045000 -0.077942
      vertex 0.120000 -0.054000 -0.093531
    endloop
  endfacet
  facet normal -0.264757 -0.369027 -0.890911
    outer loop
      vertex 0.055000 -0.045000 -0.077942
      vertex 0.120000 -0.027952 -0.104320
      vertex 0.120000 -0.054000 -0.093531
    endloop
  endfacet
  facet normal -0.264757 -0.369027 -0.890911
    outer loop
      vertex 0.055000 -0.045000 -0.077942
      vertex 0.055000 -0.023294 -0.086933
      vertex 0.120000 -0.027952 -0.104320
    endloop
  endfacet
  facet normal -0.264757 -0.125868 -0.956065
    outer loop
      vertex 0.055000 -0.023294 -0.086933
      vertex 0.120000 0.000000 -0.108000
      vertex 0.120000 -0.027952 -0.104320
    endloop
  endfacet
  facet normal -0.264757 -0.125868 -0.956065
    outer loop
      vertex 0.055000 -0.023294 -0.086933
      vertex 0.055000 0.000000 -0.090000
      vertex 0.120000 0.000000 -0.108000
    endloop
  endfacet
  facet normal -0.264757 0.125868 -0.956065
    outer loop
      vertex 0.055000 0.000000 -0.090000
      vertex 0.120000 0.027952 -0.104320
      vertex 0.120000 0.000000 -0.108000
    endloop
  endfacet
  facet normal -0.264757 0.125868 -0.956065
    outer loop
      vertex 0.055000 0.000000 -0.090000
      vertex 0.055000 0.023294 -0.086933
      vertex 0.120000 0.027952 -0.104320
    endloop
  endfacet
  facet normal -0.264757 0.369027 -0.890911
    outer loop
      vertex 0.055000 0.023294 -0.086933
      vertex 0.120000 0.054000 -0.093531
      vertex 0.120000 0.027952 -0.104320
    endloop
  endfacet
  facet normal -0.264757 0.369027 -0.890911
    outer loop
      vertex 0.055000 0.023294 -0.086933
      vertex 0.055000 0.045000 -0.077942
      vertex 0.120000 0.054000 -0.093531
    endloop
  endfacet
  facet normal -0.264757 0.587038 -0.765043
    outer loop
      vertex 0.055000 0.045000 -0.077942
      vertex 0.120000 0.076368 -0.076368
      vertex 0.120000 0.054000 -0.093531
    endloop
  endfacet
  facet normal -0.264757 0.587038 -0.765043
    outer loop
      vertex 0.055000 0.045000 -0.077942
      vertex 0.055000 0.063640 -0.063640
      vertex 0.120000 0.076368 -0.076368
    endloop
  endfacet
  facet normal -0.264757 0.765043 -0.587038
    outer loop
      vertex 0.055000 0.063640 -0.063640
      vertex 0.120000 0.093531 -0.054000
      vertex 0.120000 0.076368 -0.076368
    endloop
  endfacet
  facet normal -0.264757 0.765043 -0.587038
    outer loop
      vertex 0.055000 0.063640 -0.063640
      vertex 0.055000 0.077942 -0.045000
      vertex 0.120000 0.093531 -0.054000
    endloop
  endfacet
  facet normal -0.264757 0.890911 -0.369027
    outer loop
      vertex 0.055000 0.077942 -0.045000
      vertex 0.120000 0.104320 -0.027952
      vertex 0.120000 0.093531 -0.054000
    endloop
  endfacet
  facet normal -0.264757 0.890911 -0.369027
    outer loop
      vertex 0.055000 0.077942 -0.045000
      vertex 0.055000 0.086933 -0.023294
      vertex 0.120000 0.104320 -0.027952
    endloop
  endfacet
  facet normal -0.264757 0.956065 -0.125868
    outer loop
      vertex 0.055000 0.086933 -0.023294
      vertex 0.120000 0.108000 0.000000
      vertex 0.120000 0.104320 -0.027952
    endloop
  endfacet
  facet normal -0.264757 0.956065 -0.125868
    outer loop
      vertex 0.055000 0.086933 -0.023294
      vertex 0.055000 0.090000 0.000000
      vertex 0.120000 0.108000 0.000000
    endloop
  endfacet
  facet normal 0.544733 -0.831435 -0.109460
    outer loop
      vertex -0.008000 0.040000 0.000000
      vertex 0.050000 0.078000 0.000000
      vertex 0.050000 0.075342 0.020188
    endloop
  endfacet
  facet normal 0.544733 -0.831435 -0.109460
    outer loop
      vertex -0.008000 0.040000 0.000000
      vertex 0.050000 0.075342 0.020188
      vertex -0.008000 0.038637 0.010353
    endloop
  endfacet
  facet normal 0.544733 -0.774774 -0.320922
    outer loop
      vertex -0.008000 0.038637 0.010353
      vertex 0.050000 0.075342 0.020188
      vertex 0.050000 0.067550 0.039000
    endloop
  endfacet
  facet normal 0.544733 -0.774774 -0.320922
    outer loop
      vertex -0.008000 0.038637 0.010353
      vertex 0.050000 0.067550 0.039000
      vertex -0.008000 0.034641 0.020000
    endloop
  endfacet
  facet normal 0.544733 -0.665314 -0.510513
    outer loop
      vertex -0.008000 0.034641 0.020000
      vertex 0.050000 0.067550 0.039000
      vertex 0.050000 0.055154 0.055154
    endloop
  endfacet
  facet normal 0.544733 -0.665314 -0.510513
    outer loop
      vertex -0.008000 0.034641 0.020000
      vertex 0.050000 0.055154 0.055154
      vertex -0.008000 0.028284 0.028284
    endloop
  endfacet
  facet normal 0.544733 -0.510513 -0.665314
    outer loop
      vertex -0.008000 0.028284 0.028284
      vertex 0.050000 0.055154 0.055154
      vertex 0.050000 0.039000 0.067550
    endloop
  endfacet
  facet normal 0.544733 -0.510513 -0.665314
    outer loop
      vertex -0.008000 0.028284 0.028284
      vertex 0.050000 0.039000 0.067550
      vertex -0.008000 0.020000 0.034641
    endloop
  endfacet
  facet normal 0.544733 -0.320922 -0.774774
    outer loop
      vertex -0.008000 0.020000 0.034641
      vertex 0.050000 0.039000 0.067550
      vertex 0.050000 0.020188 0.075342
    endloop
  endfacet
  facet normal 0.544733 -0.320922 -0.774774
    outer loop
      vertex -0.008000 0.020000 0.034641
      vertex 0.050000 0.020188 0.075342
      vertex -0.008000 0.010353 0.038637
    endloop
  endfacet
  facet normal 0.544733 -0.109460 -0.831435
    outer loop
      vertex -0.008000 0.010353 0.038637
      vertex 0.050000 0.020188 0.075342
      vertex 0.050000 0.000000 0.078000
    endloop
  endfacet
  facet normal 0.544733 -0.109460 -0.831435
    outer loop
      vertex -0.008000 0.010353 0.038637
      vertex 0.050000 0.000000 0.078000
      vertex -0.008000 0.000000 0.040000
    endloop
  endfacet
  facet normal 0.544733 0.109460 -0.831435
    outer loop
      vertex -0.008000 0.000000 0.040000
      vertex 0.050000 0.000000 0.078000
      vertex 0.050000 -0.020188 0.075342
    endloop
  endfacet
  facet normal 0.544733 0.109460 -0.831435
    outer loop
      vertex -0.008000 0.000000 0.040000
      vertex 0.050000 -0.020188 0.075342
      vertex -0.008000 -0.010353 0.038637
    endloop
  endfacet
  facet normal 0.544733 0.320922 -0.774774
    outer loop
      vertex -0.008000 -0.010353 0.038637
      vertex 0.050000 -0.020188 0.075342
      vertex 0.050000 -0.039000 0.067550
    endloop
  endfacet
  facet normal 0.544733 0.320922 -0.774774
    outer loop
      vertex -0.008000 -0.010353 0.038637
      vertex 0.050000 -0.039000 0.067550
      vertex -0.008000 -0.020000 0.034641
    endloop
  endfacet
  facet normal 0.544733 0.510513 -0.665314
    outer loop
      vertex -0.008000 -0.020000 0.034641
      vertex 0.050000 -0.039000 0.067550
      vertex 0.050000 -0.055154 0.055154
    endloop
  endfacet
  facet normal 0.544733 0.510513 -0.665314
    outer loop
      vertex -0.008000 -0.020000 0.034641
      vertex 0.050000 -0.055154 0.055154
      vertex -0.008000 -0.028284 0.028284
    endloop
  endfacet
  facet normal 0.544733 0.665314 -0.510513
    outer loop
      vertex -0.008000 -0.028284 0.028284
      vertex 0.050000 -0.055154 0.055154
      vertex 0.050000 -0.067550 0.039000
    endloop
  endfacet
  facet normal 0.544733 0.665314 -0.510513
    outer loop
      vertex -0.008000 -0.028284 0.028284
      vertex 0.050000 -0.067550 0.039000
      vertex -0.008000 -0.034641 0.020000
    endloop
  endfacet
  facet normal 0.544733 0.774774 -0.320922
    outer loop
      vertex -0.008000 -0.034641 0.020000
      vertex 0.050000 -0.067550 0.039000
      vertex 0.050000 -0.075342 0.020188
    endloop
  endfacet
  facet normal 0.544733 0.774774 -0.320922
    outer loop
      vertex -0.008000 -0.034641 0.020000
      vertex 0.050000 -0.075342 0.020188
      vertex -0.008000 -0.038637 0.010353
    endloop
  endfacet
  facet normal 0.544733 0.831435 -0.109460
    outer loop
      vertex -0.008000 -0.038637 0.010353
      vertex 0.050000 -0.075342 0.020188
      vertex 0.050000 -0.078000 0.000000
    endloop
  endfacet
  facet normal 0.544733 0.831435 -0.109460
    outer loop
      vertex -0.008000 -0.038637 0.010353
      vertex 0.050000 -0.078000 0.000000
      vertex -0.008000 -0.040000 0.000000
    endloop
  endfacet
  facet normal 0.544733 0.831435 0.109460
    outer loop
      vertex -0.008000 -0.040000 0.000000
      vertex 0.050000 -0.078000 0.000000
      vertex 0.050000 -0.075342 -0.020188
    endloop
  endfacet
  facet normal 0.544733 0.831435 0.109460
    outer loop
      vertex -0.008000 -0.040000 0.000000
      vertex 0.050000 -0.075342 -0.020188
      vertex -0.008000 -0.038637 -0.010353
    endloop
  endfacet
  facet normal 0.544733 0.774774 0.320922
    outer loop
      vertex -0.008000 -0.038637 -0.010353
      vertex 0.050000 -0.075342 -0.020188
      vertex 0.050000 -0.067550 -0.039000
    endloop
  endfacet
  facet normal 0.544733 0.774774 0.320922
    outer loop
      vertex -0.008000 -0.038637 -0.010353
      vertex 0.050000 -0.067550 -0.039000
      vertex -0.008000 -0.034641 -0.020000
    endloop
  endfacet
  facet normal 0.544733 0.665314 0.510513
    outer loop
      vertex -0.008000 -0.034641 -0.020000
      vertex 0.050000 -0.067550 -0.039000
      vertex 0.050000 -0.055154 -0.055154
    endloop
  endfacet
  facet normal 0.544733 0.665314 0.510513
    outer loop
      vertex -0.008000 -0.034641 -0.020000
      vertex 0.050000 -0.055154 -0.055154
      vertex -0.008000 -0.028284 -0.028284
    endloop
  endfacet
  facet normal 0.544733 0.510513 0.665314
    outer loop
      vertex -0.008000 -0.028284 -0.028284
      vertex 0.050000 -0.055154 -0.055154
      vertex 0.050000 -0.039000 -0.067550
    endloop
  endfacet
  facet normal 0.544733 0.510513 0.665314
    outer loop
      vertex -0.008000 -0.028284 -0.028284
      vertex 0.050000 -0.039000 -0.067550
      vertex -0.008000 -0.020000 -0.034641
    endloop
  endfacet
  facet normal 0.544733 0.320922 0.774774
    outer loop
      vertex -0.008000 -0.020000 -0.034641
      vertex 0.050000 -0.039000 -0.067550
      vertex 0.050000 -0.020188 -0.075342
    endloop
  endfacet
  facet normal 0.544733 0.320922 0.774774
    outer loop
      vertex -0.008000 -0.020000 -0.034641
      vertex 0.050000 -0.020188 -0.075342
      vertex -0.008000 -0.010353 -0.038637
    endloop
  endfacet
  facet normal 0.544733 0.109460 0.831435
    outer loop
      vertex -0.008000 -0.010353 -0.038637
      vertex 0.050000 -0.020188 -0.075342
      vertex 0.050000 0.000000 -0.078000
    endloop
  endfacet
  facet normal 0.544733 0.109460 0.831435
    outer loop
      vertex -0.008000 -0.010353 -0.038637
      vertex 0.050000 0.000000 -0.078000
      vertex -0.008000 0.000000 -0.040000
    endloop
  endfacet
  facet normal 0.544733 -0.109460 0.831435
    outer loop
      vertex -0.008000 0.000000 -0.040000
      vertex 0.050000 0.000000 -0.078000
      vertex 0.050000 0.020188 -0.075342
    endloop
  endfacet
  facet normal 0.544733 -0.109460 0.831435
    outer loop
      vertex -0.008000 0.000000 -0.040000
      vertex 0.050000 0.020188 -0.075342
      vertex -0.008000 0.010353 -0.038637
    endloop
  endfacet
  facet normal 0.544733 -0.320922 0.774774
    outer loop
      vertex -0.008000 0.010353 -0.038637
      vertex 0.050000 0.020188 -0.075342
      vertex 0.050000 0.039000 -0.067550
    endloop
  endfacet
  facet normal 0.544733 -0.320922 0.774774
    outer loop
      vertex -0.008000 0.010353 -0.038637
      vertex 0.050000 0.039000 -0.067550
      vertex -0.008000 0.020000 -0.034641
    endloop
  endfacet
  facet normal 0.544733 -0.510513 0.665314
    outer loop
      vertex -0.008000 0.020000 -0.034641
      vertex 0.050000 0.039000 -0.067550
      vertex 0.050000 0.055154 -0.055154
    endloop
  endfacet
  facet normal 0.544733 -0.510513 0.665314
    outer loop
      vertex -0.008000 0.020000 -0.034641
      vertex 0.050000 0.055154 -0.055154
      vertex -0.008000 0.028284 -0.028284
    endloop
  endfacet
  facet normal 0.544733 -0.665314 0.510513
    outer loop
      vertex -0.008000 0.028284 -0.028284
      vertex 0.050000 0.055154 -0.055154
      vertex 0.050000 0.067550 -0.039000
    endloop
  endfacet
  facet normal 0.544733 -0.665314 0.510513
    outer loop
      vertex -0.008000 0.028284 -0.028284
      vertex 0.050000 0.067550 -0.039000
      vertex -0.008000 0.034641 -0.020000
    endloop
  endfacet
  facet normal 0.544733 -0.774774 0.320922
    outer loop
      vertex -0.008000 0.034641 -0.020000
      vertex 0.050000 0.067550 -0.039000
      vertex 0.050000 0.075342 -0.020188
    endloop
  endfacet
  facet normal 0.544733 -0.774774 0.320922
    outer loop
      vertex -0.008000 0.034641 -0.020000
      vertex 0.050000 0.075342 -0.020188
      vertex -0.008000 0.038637 -0.010353
    endloop
  endfacet
  facet normal 0.544733 -0.831435 0.109460
    outer loop
      vertex -0.008000 0.038637 -0.010353
      vertex 0.050000 0.075342 -0.020188
      vertex 0.050000 0.078000 0.000000
    endloop
  endfacet
  facet normal 0.544733 -0.831435 0.109460
    outer loop
      vertex -0.008000 0.038637 -0.010353
      vertex 0.050000 0.078000 0.000000
      vertex -0.008000 0.040000 0.000000
    endloop
  endfacet
  facet normal 0.276608 -0.952761 -0.125433
    outer loop
      vertex 0.050000 0.078000 0.000000
      vertex 0.112000 0.096000 0.000000
      vertex 0.112000 0.092729 0.024847
    endloop
  endfacet
  facet normal 0.276608 -0.952761 -0.125433
    outer loop
      vertex 0.050000 0.078000 0.000000
      vertex 0.112000 0.092729 0.024847
      vertex 0.050000 0.075342 0.020188
    endloop
  endfacet
  facet normal 0.276608 -0.887832 -0.367752
    outer loop
      vertex 0.050000 0.075342 0.020188
      vertex 0.112000 0.092729 0.024847
      vertex 0.112000 0.083138 0.048000
    endloop
  endfacet
  facet normal 0.276608 -0.887832 -0.367752
    outer loop
      vertex 0.050000 0.075342 0.020188
      vertex 0.112000 0.083138 0.048000
      vertex 0.050000 0.067550 0.039000
    endloop
  endfacet
  facet normal 0.276608 -0.762399 -0.585009
    outer loop
      vertex 0.050000 0.067550 0.039000
      vertex 0.112000 0.083138 0.048000
      vertex 0.112000 0.067882 0.067882
    endloop
  endfacet
  facet normal 0.276608 -0.762399 -0.585009
    outer loop
      vertex 0.050000 0.067550 0.039000
      vertex 0.112000 0.067882 0.067882
      vertex 0.050000 0.055154 0.055154
    endloop
  endfacet
  facet normal 0.276608 -0.585009 -0.762399
    outer loop
      vertex 0.050000 0.055154 0.055154
      vertex 0.112000 0.067882 0.067882
      vertex 0.112000 0.048000 0.083138
    endloop
  endfacet
  facet normal 0.276608 -0.585009 -0.762399
    outer loop
      vertex 0.050000 0.055154 0.055154
      vertex 0.112000 0.048000 0.083138
      vertex 0.050000 0.039000 0.067550
    endloop
  endfacet
  facet normal 0.276608 -0.367752 -0.887832
    outer loop
      vertex 0.050000 0.039000 0.067550
      vertex 0.112000 0.048000 0.083138
      vertex 0.112000 0.024847 0.092729
    endloop
  endfacet
  facet normal 0.276608 -0.367752 -0.887832
    outer loop
      vertex 0.050000 0.039000 0.067550
      vertex 0.112000 0.024847 0.092729
      vertex 0.050000 0.020188 0.075342
    endloop
  endfacet
  facet normal 0.276608 -0.125433 -0.952761
    outer loop
      vertex 0.050000 0.020188 0.075342
      vertex 0.112000 0.024847 0.092729
      vertex 0.112000 0.000000 0.096000
    endloop
  endfacet
  facet normal 0.276608 -0.125433 -0.952761
    outer loop
      vertex 0.050000 0.020188 0.075342
      vertex 0.112000 0.000000 0.096000
      vertex 0.050000 0.000000 0.078000
    endloop
  endfacet
  facet normal 0.276608 0.125433 -0.952761
    outer loop
      vertex 0.050000 0.000000 0.078000
      vertex 0.112000 0.000000 0.096000
      vertex 0.112000 -0.024847 0.092729
    endloop
  endfacet
  facet normal 0.276608 0.125433 -0.952761
    outer loop
      vertex 0.050000 0.000000 0.078000
      vertex 0.112000 -0.024847 0.092729
      vertex 0.050000 -0.020188 0.075342
    endloop
  endfacet
  facet normal 0.276608 0.367752 -0.887832
    outer loop
      vertex 0.050000 -0.020188 0.075342
      vertex 0.112000 -0.024847 0.092729
      vertex 0.112000 -0.048000 0.083138
    endloop
  endfacet
  facet normal 0.276608 0.367752 -0.887832
    outer loop
      vertex 0.050000 -0.020188 0.075342
      vertex 0.112000 -0.048000 0.083138
      vertex 0.050000 -0.039000 0.067550
    endloop
  endfacet
  facet normal 0.276608 0.585009 -0.762399
    outer loop
      vertex 0.050000 -0.039000 0.067550
      vertex 0.112000 -0.048000 0.083138
      vertex 0.112000 -0.067882 0.067882
    endloop
  endfacet
  facet normal 0.276608 0.585009 -0.762399
    outer loop
      vertex 0.050000 -0.039000 0.067550
      vertex 0.112000 -0.067882 0.067882
      vertex 0.050000 -0.055154 0.055154
    endloop
  endfacet
  facet normal 0.276608 0.762399 -0.585009
    outer loop
      vertex 0.050000 -0.055154 0.055154
      vertex 0.112000 -0.067882 0.067882
      vertex 0.112000 -0.083138 0.048000
    endloop
  endfacet
  facet normal 0.276608 0.762399 -0.585009
    outer loop
      vertex 0.050000 -0.055154 0.055154
      vertex 0.112000 -0.083138 0.048000
      vertex 0.050000 -0.067550 0.039000
    endloop
  endfacet
  facet normal 0.276608 0.887832 -0.367752
    outer loop
      vertex 0.050000 -0.067550 0.039000
      vertex 0.112000 -0.083138 0.048000
      vertex 0.112000 -0.092729 0.024847
    endloop
  endfacet
  facet normal 0.276608 0.887832 -0.367752
    outer loop
      vertex 0.050000 -0.067550 0.039000
      vertex 0.112000 -0.092729 0.024847
      vertex 0.050000 -0.075342 0.020188
    endloop
  endfacet
  facet normal 0.276608 0.952761 -0.125433
    outer loop
      vertex 0.050000 -0.075342 0.020188
      vertex 0.112000 -0.092729 0.024847
      vertex 0.112000 -0.096000 0.000000
    endloop
  endfacet
  facet normal 0.276608 0.952761 -0.125433
    outer loop
      vertex 0.050000 -0.075342 0.020188
      vertex 0.112000 -0.096000 0.000000
      vertex 0.050000 -0.078000 0.000000
    endloop
  endfacet
  facet normal 0.276608 0.952761 0.125433
    outer loop
      vertex 0.050000 -0.078000 0.000000
      vertex 0.112000 -0.096000 0.000000
      vertex 0.112000 -0.092729 -0.024847
    endloop
  endfacet
  facet normal 0.276608 0.952761 0.125433
    outer loop
      vertex 0.050000 -0.078000 0.000000
      vertex 0.112000 -0.092729 -0.024847
      vertex 0.050000 -0.075342 -0.020188
    endloop
  endfacet
  facet normal 0.276608 0.887832 0.367752
    outer loop
      vertex 0.050000 -0.075342 -0.020188
      vertex 0.112000 -0.092729 -0.024847
      vertex 0.112000 -0.083138 -0.048000
    endloop
  endfacet
  facet normal 0.276608 0.887832 0.367752
    outer loop
      vertex 0.050000 -0.075342 -0.020188
      vertex 0.112000 -0.083138 -0.048000
      vertex 0.050000 -0.067550 -0.039000
    endloop
  endfacet
  facet normal 0.276608 0.762399 0.585009
    outer loop
      vertex 0.050000 -0.067550 -0.039000
      vertex 0.112000 -0.083138 -0.048000
      vertex 0.112000 -0.067882 -0.067882
    endloop
  endfacet
  facet normal 0.276608 0.762399 0.585009
    outer loop
      vertex 0.050000 -0.067550 -0.039000
      vertex 0.112000 -0.067882 -0.067882
      vertex 0.050000 -0.055154 -0.055154
    endloop
  endfacet
  facet normal 0.276608 0.585009 0.762399
    outer loop
      vertex 0.050000 -0.055154 -0.055154
      vertex 0.112000 -0.067882 -0.067882
      vertex 0.112000 -0.048000 -0.083138
    endloop
  endfacet
  facet normal 0.276608 0.585009 0.762399
    outer loop
      vertex 0.050000 -0.055154 -0.055154
      vertex 0.112000 -0.048000 -0.083138
      vertex 0.050000 -0.039000 -0.067550
    endloop
  endfacet
  facet normal 0.276608 0.367752 0.887832
    outer loop
      vertex 0.050000 -0.039000 -0.067550
      vertex 0.112000 -0.048000 -0.083138
      vertex 0.112000 -0.024847 -0.092729
    endloop
  endfacet
  facet normal 0.276608 0.367752 0.887832
    outer loop
      vertex 0.050000 -0.039000 -0.067550
      vertex 0.112000 -0.024847 -0.092729
      vertex 0.050000 -0.020188 -0.075342
    endloop
  endfacet
  facet normal 0.276608 0.125433 0.952761
    outer loop
      vertex 0.050000 -0.020188 -0.075342
      vertex 0.112000 -0.024847 -0.092729
      vertex 0.112000 0.000000 -0.096000
    endloop
  endfacet
  facet normal 0.276608 0.125433 0.952761
    outer loop
      vertex 0.050000 -0.020188 -0.075342
      vertex 0.112000 0.000000 -0.096000
      vertex 0.050000 0.000000 -0.078000
    endloop
  endfacet
  facet normal 0.276608 -0.125433 0.952761
    outer loop
      vertex 0.050000 0.000000 -0.078000
      vertex 0.112000 0.000000 -0.096000
      vertex 0.112000 0.024847 -0.092729
    endloop
  endfacet
  facet normal 0.276608 -0.125433 0.952761
    outer loop
      vertex 0.050000 0.000000 -0.078000
      vertex 0.112000 0.024847 -0.092729
      vertex 0.050000 0.020188 -0.075342
    endloop
  endfacet
  facet normal 0.276608 -0.367752 0.887832
    outer loop
      vertex 0.050000 0.020188 -0.075342
      vertex 0.112000 0.024847 -0.092729
      vertex 0.112000 0.048000 -0.083138
    endloop
  endfacet
  facet normal 0.276608 -0.367752 0.887832
    outer loop
      vertex 0.050000 0.020188 -0.075342
      vertex 0.112000 0.048000 -0.083138
      vertex 0.050000 0.039000 -0.067550
    endloop
  endfacet
  facet normal 0.276608 -0.585009 0.762399
    outer loop
      vertex 0.050000 0.039000 -0.067550
      vertex 0.112000 0.048000 -0.083138
      vertex 0.112000 0.067882 -0.067882
    endloop
  endfacet
  facet normal 0.276608 -0.585009 0.762399
    outer loop
      vertex 0.050000 0.039000 -0.067550
      vertex 0.112000 0.067882 -0.067882
      vertex 0.050000 0.055154 -0.055154
    endloop
  endfacet
  facet normal 0.276608 -0.762399 0.585009
    outer loop
      vertex 0.050000 0.055154 -0.055154
      vertex 0.112000 0.067882 -0.067882
      vertex 0.112000 0.083138 -0.048000
    endloop
  endfacet
  facet normal 0.276608 -0.762399 0.585009
    outer loop
      vertex 0.050000 0.055154 -0.055154
      vertex 0.112000 0.083138 -0.048000
      vertex 0.050000 0.067550 -0.039000
    endloop
  endfacet
  facet normal 0.276608 -0.887832 0.367752
    outer loop
      vertex 0.050000 0.067550 -0.039000
      vertex 0.112000 0.083138 -0.048000
      vertex 0.112000 0.092729 -0.024847
    endloop
  endfacet
  facet normal 0.276608 -0.887832 0.367752
    outer loop
      vertex 0.050000 0.067550 -0.039000
      vertex 0.112000 0.092729 -0.024847
      vertex 0.050000 0.075342 -0.020188
    endloop
  endfacet
  facet normal 0.276608 -0.952761 0.125433
    outer loop
      vertex 0.050000 0.075342 -0.020188
      vertex 0.112000 0.092729 -0.024847
      vertex 0.112000 0.096000 0.000000
    endloop
  endfacet
  facet normal 0.276608 -0.952761 0.125433
    outer loop
      vertex 0.050000 0.075342 -0.020188
      vertex 0.112000 0.096000 0.000000
      vertex 0.050000 0.078000 0.000000
    endloop
  endfacet
  facet normal 0.829840 -0.553227 -0.072834
    outer loop
      vertex 0.120000 0.108000 0.000000
      vertex 0.120000 0.104320 0.027952
      vertex 0.112000 0.092729 0.024847
    endloop
  endfacet
  facet normal 0.829840 -0.553227 -0.072834
    outer loop
      vertex 0.120000 0.108000 0.000000
      vertex 0.112000 0.092729 0.024847
      vertex 0.112000 0.096000 0.000000
    endloop
  endfacet
  facet normal 0.829840 -0.515525 -0.213538
    outer loop
      vertex 0.120000 0.104320 0.027952
      vertex 0.120000 0.093531 0.054000
      vertex 0.112000 0.083138 0.048000
    endloop
  endfacet
  facet normal 0.829840 -0.515525 -0.213538
    outer loop
      vertex 0.120000 0.104320 0.027952
      vertex 0.112000 0.083138 0.048000
      vertex 0.112000 0.092729 0.024847
    endloop
  endfacet
  facet normal 0.829840 -0.442692 -0.339689
    outer loop
      vertex 0.120000 0.093531 0.054000
      vertex 0.120000 0.076368 0.076368
      vertex 0.112000 0.067882 0.067882
    endloop
  endfacet
  facet normal 0.829840 -0.442692 -0.339689
    outer loop
      vertex 0.120000 0.093531 0.054000
      vertex 0.112000 0.067882 0.067882
      vertex 0.112000 0.083138 0.048000
    endloop
  endfacet
  facet normal 0.829840 -0.339689 -0.442692
    outer loop
      vertex 0.120000 0.076368 0.076368
      vertex 0.120000 0.054000 0.093531
      vertex 0.112000 0.048000 0.083138
    endloop
  endfacet
  facet normal 0.829840 -0.339689 -0.442692
    outer loop
      vertex 0.120000 0.076368 0.076368
      vertex 0.112000 0.048000 0.083138
      vertex 0.112000 0.067882 0.067882
    endloop
  endfacet
  facet normal 0.829840 -0.213538 -0.515525
    outer loop
      vertex 0.120000 0.054000 0.093531
      vertex 0.120000 0.027952 0.104320
      vertex 0.112000 0.024847 0.092729
    endloop
  endfacet
  facet normal 0.829840 -0.213538 -0.515525
    outer loop
      vertex 0.120000 0.054000 0.093531
      vertex 0.112000 0.024847 0.092729
      vertex 0.112000 0.048000 0.083138
    endloop
  endfacet
  facet normal 0.829840 -0.072834 -0.553227
    outer loop
      vertex 0.120000 0.027952 0.104320
      vertex 0.120000 0.000000 0.108000
      vertex 0.112000 0.000000 0.096000
    endloop
  endfacet
  facet normal 0.829840 -0.072834 -0.553227
    outer loop
      vertex 0.120000 0.027952 0.104320
      vertex 0.112000 0.000000 0.096000
      vertex 0.112000 0.024847 0.092729
    endloop
  endfacet
  facet normal 0.829840 0.072834 -0.553227
    outer loop
      vertex 0.120000 0.000000 0.108000
      vertex 0.120000 -0.027952 0.104320
      vertex 0.112000 -0.024847 0.092729
    endloop
  endfacet
  facet normal 0.829840 0.072834 -0.553227
    outer loop
      vertex 0.120000 0.000000 0.108000
      vertex 0.112000 -0.024847 0.092729
      vertex 0.112000 0.000000 0.096000
    endloop
  endfacet
  facet normal 0.829840 0.213538 -0.515525
    outer loop
      vertex 0.120000 -0.027952 0.104320
      vertex 0.120000 -0.054000 0.093531
      vertex 0.112000 -0.048000 0.083138
    endloop
  endfacet
  facet normal 0.829840 0.213538 -0.515525
    outer loop
      vertex 0.120000 -0.027952 0.104320
      vertex 0.112000 -0.048000 0.083138
      vertex 0.112000 -0.024847 0.092729
    endloop
  endfacet
  facet normal 0.829840 0.339689 -0.442692
    outer loop
      vertex 0.120000 -0.054000 0.093531
      vertex 0.120000 -0.076368 0.076368
      vertex 0.112000 -0.067882 0.067882
    endloop
  endfacet
  facet normal 0.829840 0.339689 -0.442692
    outer loop
      vertex 0.120000 -0.054000 0.093531
      vertex 0.112000 -0.067882 0.067882
      vertex 0.112000 -0.048000 0.083138
    endloop
  endfacet
  facet normal 0.829840 0.442692 -0.339689
    outer loop
      vertex 0.120000 -0.076368 0.076368
      vertex 0.120000 -0.093531 0.054000
      vertex 0.112000 -0.083138 0.048000
    endloop
  endfacet
  facet normal 0.829840 0.442692 -0.339689
    outer loop
      vertex 0.120000 -0.076368 0.076368
      vertex 0.112000 -0.083138 0.048000
      vertex 0.112000 -0.067882 0.067882
    endloop
  endfacet
  facet normal 0.829840 0.515525 -0.213538
    outer loop
      vertex 0.120000 -0.093531 0.054000
      vertex 0.120000 -0.104320 0.027952
      vertex 0.112000 -0.092729 0.024847
    endloop
  endfacet
  facet normal 0.829840 0.515525 -0.213538
    outer loop
      vertex 0.120000 -0.093531 0.054000
      vertex 0.112000 -0.092729 0.024847
      vertex 0.112000 -0.083138 0.048000
    endloop
  endfacet
  facet normal 0.829840 0.553227 -0.072834
    outer loop
      vertex 0.120000 -0.104320 0.027952
      vertex 0.120000 -0.108000 0.000000
      vertex 0.112000 -0.096000 0.000000
    endloop
  endfacet
  facet normal 0.829840 0.553227 -0.072834
    outer loop
      vertex 0.120000 -0.104320 0.027952
      vertex 0.112000 -0.096000 0.000000
      vertex 0.112000 -0.092729 0.024847
    endloop
  endfacet
  facet normal 0.829840 0.553227 0.072834
    outer loop
      vertex 0.120000 -0.108000 0.000000
      vertex 0.120000 -0.104320 -0.027952
      vertex 0.112000 -0.092729 -0.024847
    endloop
  endfacet
  facet normal 0.829840 0.553227 0.072834
    outer loop
      vertex 0.120000 -0.108000 0.000000
      vertex 0.112000 -0.092729 -0.024847
      vertex 0.112000 -0.096000 0.000000
    endloop
  endfacet
  facet normal 0.829840 0.515525 0.213538
    outer loop
      vertex 0.120000 -0.104320 -0.027952
      vertex 0.120000 -0.093531 -0.054000
      vertex 0.112000 -0.083138 -0.048000
    endloop
  endfacet
  facet normal 0.829840 0.515525 0.213538
    outer loop
      vertex 0.120000 -0.104320 -0.027952
      vertex 0.112000 -0.083138 -0.048000
      vertex 0.112000 -0.092729 -0.024847
    endloop
  endfacet
  facet normal 0.829840 0.442692 0.339689
    outer loop
      vertex 0.120000 -0.093531 -0.054000
      vertex 0.120000 -0.076368 -0.076368
      vertex 0.112000 -0.067882 -0.067882
    endloop
  endfacet
  facet normal 0.829840 0.442692 0.339689
    outer loop
      vertex 0.120000 -0.093531 -0.054000
      vertex 0.112000 -0.067882 -0.067882
      vertex 0.112000 -0.083138 -0.048000
    endloop
  endfacet
  facet normal 0.829840 0.339689 0.442692
    outer loop
      vertex 0.120000 -0.076368 -0.076368
      vertex 0.120000 -0.054000 -0.093531
      vertex 0.112000 -0.048000 -0.083138
    endloop
  endfacet
  facet normal 0.829840 0.339689 0.442692
    outer loop
      vertex 0.120000 -0.076368 -0.076368
      vertex 0.112000 -0.048000 -0.083138
      vertex 0.112000 -0.067882 -0.067882
    endloop
  endfacet
  facet normal 0.829840 0.213538 0.515525
    outer loop
      vertex 0.120000 -0.054000 -0.093531
      vertex 0.120000 -0.027952 -0.104320
      vertex 0.112000 -0.024847 -0.092729
    endloop
  endfacet
  facet normal 0.829840 0.213538 0.515525
    outer loop
      vertex 0.120000 -0.054000 -0.093531
      vertex 0.112000 -0.024847 -0.092729
      vertex 0.112000 -0.048000 -0.083138
    endloop
  endfacet
  facet normal 0.829840 0.072834 0.553227
    outer loop
      vertex 0.120000 -0.027952 -0.104320
      vertex 0.120000 0.000000 -0.108000
      vertex 0.112000 0.000000 -0.096000
    endloop
  endfacet
  facet normal 0.829840 0.072834 0.553227
    outer loop
      vertex 0.120000 -0.027952 -0.104320
      vertex 0.112000 0.000000 -0.096000
      vertex 0.112000 -0.024847 -0.092729
    endloop
  endfacet
  facet normal 0.829840 -0.072834 0.553227
    outer loop
      vertex 0.120000 0.000000 -0.108000
      vertex 0.120000 0.027952 -0.104320
      vertex 0.112000 0.024847 -0.092729
    endloop
  endfacet
  facet normal 0.829840 -0.072834 0.553227
    outer loop
      vertex 0.120000 0.000000 -0.108000
      vertex 0.112000 0.024847 -0.092729
      vertex 0.112000 0.000000 -0.096000
    endloop
  endfacet
  facet normal 0.829840 -0.213538 0.515525
    outer loop
      vertex 0.120000 0.027952 -0.104320
      vertex 0.120000 0.054000 -0.093531
      vertex 0.112000 0.048000 -0.083138
    endloop
  endfacet
  facet normal 0.829840 -0.213538 0.515525
    outer loop
      vertex 0.120000 0.027952 -0.104320
      vertex 0.112000 0.048000 -0.083138
      vertex 0.112000 0.024847 -0.092729
    endloop
  endfacet
  facet normal 0.829840 -0.339689 0.442692
    outer loop
      vertex 0.120000 0.054000 -0.093531
      vertex 0.120000 0.076368 -0.076368
      vertex 0.112000 0.067882 -0.067882
    endloop
  endfacet
  facet normal 0.829840 -0.339689 0.442692
    outer loop
      vertex 0.120000 0.054000 -0.093531
      vertex 0.112000 0.067882 -0.067882
      vertex 0.112000 0.048000 -0.083138
    endloop
  endfacet
  facet normal 0.829840 -0.442692 0.339689
    outer loop
      vertex 0.120000 0.076368 -0.076368
      vertex 0.120000 0.093531 -0.054000
      vertex 0.112000 0.083138 -0.048000
    endloop
  endfacet
  facet normal 0.829840 -0.442692 0.339689
    outer loop
      vertex 0.120000 0.076368 -0.076368
      vertex 0.112000 0.083138 -0.048000
      vertex 0.112000 0.067882 -0.067882
    endloop
  endfacet
  facet normal 0.829840 -0.515525 0.213538
    outer loop
      vertex 0.120000 0.093531 -0.054000
      vertex 0.120000 0.104320 -0.027952
      vertex 0.112000 0.092729 -0.024847
    endloop
  endfacet
  facet normal 0.829840 -0.515525 0.213538
    outer loop
      vertex 0.120000 0.093531 -0.054000
      vertex 0.112000 0.092729 -0.024847
      vertex 0.112000 0.083138 -0.048000
    endloop
  endfacet
  facet normal 0.829840 -0.553227 0.072834
    outer loop
      vertex 0.120000 0.104320 -0.027952
      vertex 0.120000 0.108000 0.000000
      vertex 0.112000 0.096000 0.000000
    endloop
  endfacet
  facet normal 0.829840 -0.553227 0.072834
    outer loop
      vertex 0.120000 0.104320 -0.027952
      vertex 0.112000 0.096000 0.000000
      vertex 0.112000 0.092729 -0.024847
    endloop
  endfacet
  facet normal -0.339157 0.932682 0.122790
    outer loop
      vertex -0.030000 0.032000 0.000000
      vertex -0.030000 0.030910 0.008282
      vertex -0.008000 0.038637 0.010353
    endloop
  endfacet
  facet normal -0.339157 0.932682 0.122790
    outer loop
      vertex -0.030000 0.032000 0.000000
      vertex -0.008000 0.038637 0.010353
      vertex -0.008000 0.040000 0.000000
    endloop
  endfacet
  facet normal -0.339157 0.869121 0.360002
    outer loop
      vertex -0.030000 0.030910 0.008282
      vertex -0.030000 0.027713 0.016000
      vertex -0.008000 0.034641 0.020000
    endloop
  endfacet
  facet normal -0.339157 0.869121 0.360002
    outer loop
      vertex -0.030000 0.030910 0.008282
      vertex -0.008000 0.034641 0.020000
      vertex -0.008000 0.038637 0.010353
    endloop
  endfacet
  facet normal -0.339157 0.746331 0.572680
    outer loop
      vertex -0.030000 0.027713 0.016000
      vertex -0.030000 0.022627 0.022627
      vertex -0.008000 0.028284 0.028284
    endloop
  endfacet
  facet normal -0.339157 0.746331 0.572680
    outer loop
      vertex -0.030000 0.027713 0.016000
      vertex -0.008000 0.028284 0.028284
      vertex -0.008000 0.034641 0.020000
    endloop
  endfacet
  facet normal -0.339157 0.572680 0.746331
    outer loop
      vertex -0.030000 0.022627 0.022627
      vertex -0.030000 0.016000 0.027713
      vertex -0.008000 0.020000 0.034641
    endloop
  endfacet
  facet normal -0.339157 0.572680 0.746331
    outer loop
      vertex -0.030000 0.022627 0.022627
      vertex -0.008000 0.020000 0.034641
      vertex -0.008000 0.028284 0.028284
    endloop
  endfacet
  facet normal -0.339157 0.360002 0.869121
    outer loop
      vertex -0.030000 0.016000 0.027713
      vertex -0.030000 0.008282 0.030910
      vertex -0.008000 0.010353 0.038637
    endloop
  endfacet
  facet normal -0.339157 0.360002 0.869121
    outer loop
      vertex -0.030000 0.016000 0.027713
      vertex -0.008000 0.010353 0.038637
      vertex -0.008000 0.020000 0.034641
    endloop
  endfacet
  facet normal -0.339157 0.122790 0.932682
    outer loop
      vertex -0.030000 0.008282 0.030910
      vertex -0.030000 0.000000 0.032000
      vertex -0.008000 0.000000 0.040000
    endloop
  endfacet
  facet normal -0.339157 0.122790 0.932682
    outer loop
      vertex -0.030000 0.008282 0.030910
      vertex -0.008000 0.000000 0.040000
      vertex -0.008000 0.010353 0.038637
    endloop
  endfacet
  facet normal -0.339157 -0.122790 0.932682
    outer loop
      vertex -0.030000 0.000000 0.032000
      vertex -0.030000 -0.008282 0.030910
      vertex -0.008000 -0.010353 0.038637
    endloop
  endfacet
  facet normal -0.339157 -0.122790 0.932682
    outer loop
      vertex -0.030000 0.000000 0.032000
      vertex -0.008000 -0.010353 0.038637
      vertex -0.008000 0.000000 0.040000
    endloop
  endfacet
  facet normal -0.339157 -0.360002 0.869121
    outer loop
      vertex -0.030000 -0.008282 0.030910
      vertex -0.030000 -0.016000 0.027713
      vertex -0.008000 -0.020000 0.034641
    endloop
  endfacet
  facet normal -0.339157 -0.360002 0.869121
    outer loop
      vertex -0.030000 -0.008282 0.030910
      vertex -0.008000 -0.020000 0.034641
      vertex -0.008000 -0.010353 0.038637
    endloop
  endfacet
  facet normal -0.339157 -0.572680 0.746331
    outer loop
      vertex -0.030000 -0.016000 0.027713
      vertex -0.030000 -0.022627 0.022627
      vertex -0.008000 -0.028284 0.028284
    endloop
  endfacet
  facet normal -0.339157 -0.572680 0.746331
    outer loop
      vertex -0.030000 -0.016000 0.027713
      vertex -0.008000 -0.028284 0.028284
      vertex -0.008000 -0.020000 0.034641
    endloop
  endfacet
  facet normal -0.339157 -0.746331 0.572680
    outer loop
      vertex -0.030000 -0.022627 0.022627
      vertex -0.030000 -0.027713 0.016000
      vertex -0.008000 -0.034641 0.020000
    endloop
  endfacet
  facet normal -0.339157 -0.746331 0.572680
    outer loop
      vertex -0.030000 -0.022627 0.022627
      vertex -0.008000 -0.034641 0.020000
      vertex -0.008000 -0.028284 0.028284
    endloop
  endfacet
  facet normal -0.339157 -0.869121 0.360002
    outer loop
      vertex -0.030000 -0.027713 0.016000
      vertex -0.030000 -0.030910 0.008282
      vertex -0.008000 -0.038637 0.010353
    endloop
  endfacet
  facet normal -0.339157 -0.869121 0.360002
    outer loop
      vertex -0.030000 -0.027713 0.016000
      vertex -0.008000 -0.038637 0.010353
      vertex -0.008000 -0.034641 0.020000
    endloop
  endfacet
  facet normal -0.339157 -0.932682 0.122790
    outer loop
      vertex -0.030000 -0.030910 0.008282
      vertex -0.030000 -0.032000 0.000000
      vertex -0.008000 -0.040000 0.000000
    endloop
  endfacet
  facet normal -0.339157 -0.932682 0.122790
    outer loop
      vertex -0.030000 -0.030910 0.008282
      vertex -0.008000 -0.040000 0.000000
      vertex -0.008000 -0.038637 0.010353
    endloop
  endfacet
  facet normal -0.339157 -0.932682 -0.122790
    outer loop
      vertex -0.030000 -0.032000 0.000000
      vertex -0.030000 -0.030910 -0.008282
      vertex -0.008000 -0.038637 -0.010353
    endloop
  endfacet
  facet normal -0.339157 -0.932682 -0.122790
    outer loop
      vertex -0.030000 -0.032000 0.000000
      vertex -0.008000 -0.038637 -0.010353
      vertex -0.008000 -0.040000 0.000000
    endloop
  endfacet
  facet normal -0.339157 -0.869121 -0.360002
    outer loop
      vertex -0.030000 -0.030910 -0.008282
      vertex -0.030000 -0.027713 -0.016000
      vertex -0.008000 -0.034641 -0.020000
    endloop
  endfacet
  facet normal -0.339157 -0.869121 -0.360002
    outer loop
      vertex -0.030000 -0.030910 -0.008282
      vertex -0.008000 -0.034641 -0.020000
      vertex -0.008000 -0.038637 -0.010353
    endloop
  endfacet
  facet normal -0.339157 -0.746331 -0.572680
    outer loop
      vertex -0.030000 -0.027713 -0.016000
      vertex -0.030000 -0.022627 -0.022627
      vertex -0.008000 -0.028284 -0.028284
    endloop
  endfacet
  facet normal -0.339157 -0.746331 -0.572680
    outer loop
      vertex -0.030000 -0.027713 -0.016000
      vertex -0.008000 -0.028284 -0.028284
      vertex -0.008000 -0.034641 -0.020000
    endloop
  endfacet
  facet normal -0.339157 -0.572680 -0.746331
    outer loop
      vertex -0.030000 -0.022627 -0.022627
      vertex -0.030000 -0.016000 -0.027713
      vertex -0.008000 -0.020000 -0.034641
    endloop
  endfacet
  facet normal -0.339157 -0.572680 -0.746331
    outer loop
      vertex -0.030000 -0.022627 -0.022627
      vertex -0.008000 -0.020000 -0.034641
      vertex -0.008000 -0.028284 -0.028284
    endloop
  endfacet
  facet normal -0.339157 -0.360002 -0.869121
    outer loop
      vertex -0.030000 -0.016000 -0.027713
      vertex -0.030000 -0.008282 -0.030910
      vertex -0.008000 -0.010353 -0.038637
    endloop
  endfacet
  facet normal -0.339157 -0.360002 -0.869121
    outer loop
      vertex -0.030000 -0.016000 -0.027713
      vertex -0.008000 -0.010353 -0.038637
      vertex -0.008000 -0.020000 -0.034641
    endloop
  endfacet
  facet normal -0.339157 -0.122790 -0.932682
    outer loop
      vertex -0.030000 -0.008282 -0.030910
      vertex -0.030000 0.000000 -0.032000
      vertex -0.008000 0.000000 -0.040000
    endloop
  endfacet
  facet normal -0.339157 -0.122790 -0.932682
    outer loop
      vertex -0.030000 -0.008282 -0.030910
      vertex -0.008000 0.000000 -0.040000
      vertex -0.008000 -0.010353 -0.038637
    endloop
  endfacet
  facet normal -0.339157 0.122790 -0.932682
    outer loop
      vertex -0.030000 0.000000 -0.032000
      vertex -0.030000 0.008282 -0.030910
      vertex -0.008000 0.010353 -0.038637
    endloop
  endfacet
  facet normal -0.339157 0.122790 -0.932682
    outer loop
      vertex -0.030000 0.000000 -0.032000
      vertex -0.008000 0.010353 -0.038637
      vertex -0.008000 0.000000 -0.040000
    endloop
  endfacet
  facet normal -0.339157 0.360002 -0.869121
    outer loop
      vertex -0.030000 0.008282 -0.030910
      vertex -0.030000 0.016000 -0.027713
      vertex -0.008000 0.020000 -0.034641
    endloop
  endfacet
  facet normal -0.339157 0.360002 -0.869121
    outer loop
      vertex -0.030000 0.008282 -0.030910
      vertex -0.008000 0.020000 -0.034641
      vertex -0.008000 0.010353 -0.038637
    endloop
  endfacet
  facet normal -0.339157 0.572680 -0.746331
    outer loop
      vertex -0.030000 0.016000 -0.027713
      vertex -0.030000 0.022627 -0.022627
      vertex -0.008000 0.028284 -0.028284
    endloop
  endfacet
  facet normal -0.339157 0.572680 -0.746331
    outer loop
      vertex -0.030000 0.016000 -0.027713
      vertex -0.008000 0.028284 -0.028284
      vertex -0.008000 0.020000 -0.034641
    endloop
  endfacet
  facet normal -0.339157 0.746331 -0.572680
    outer loop
      vertex -0.030000 0.022627 -0.022627
      vertex -0.030000 0.027713 -0.016000
      vertex -0.008000 0.034641 -0.020000
    endloop
  endfacet
  facet normal -0.339157 0.746331 -0.572680
    outer loop
      vertex -0.030000 0.022627 -0.022627
      vertex -0.008000 0.034641 -0.020000
      vertex -0.008000 0.028284 -0.028284
    endloop
  endfacet
  facet normal -0.339157 0.869121 -0.360002
    outer loop
      vertex -0.030000 0.027713 -0.016000
      vertex -0.030000 0.030910 -0.008282
      vertex -0.008000 0.038637 -0.010353
    endloop
  endfacet
  facet normal -0.339157 0.869121 -0.360002
    outer loop
      vertex -0.030000 0.027713 -0.016000
      vertex -0.008000 0.038637 -0.010353
      vertex -0.008000 0.034641 -0.020000
    endloop
  endfacet
  facet normal -0.339157 0.932682 -0.122790
    outer loop
      vertex -0.030000 0.030910 -0.008282
      vertex -0.030000 0.032000 0.000000
      vertex -0.008000 0.040000 0.000000
    endloop
  endfacet
  facet normal -0.339157 0.932682 -0.122790
    outer loop
      vertex -0.030000 0.030910 -0.008282
      vertex -0.008000 0.040000 0.000000
      vertex -0.008000 0.038637 -0.010353
    endloop
  endfacet
  facet normal 0.998731 -0.049937 -0.006574
    outer loop
      vertex -0.010000 0.000000 0.000000
      vertex -0.008000 0.040000 0.000000
      vertex -0.008000 0.038637 0.010353
    endloop
  endfacet
  facet normal 0.998731 -0.046533 -0.019275
    outer loop
      vertex -0.010000 0.000000 0.000000
      vertex -0.008000 0.038637 0.010353
      vertex -0.008000 0.034641 0.020000
    endloop
  endfacet
  facet normal 0.998731 -0.039959 -0.030662
    outer loop
      vertex -0.010000 0.000000 0.000000
      vertex -0.008000 0.034641 0.020000
      vertex -0.008000 0.028284 0.028284
    endloop
  endfacet
  facet normal 0.998731 -0.030662 -0.039959
    outer loop
      vertex -0.010000 0.000000 0.000000
      vertex -0.008000 0.028284 0.028284
      vertex -0.008000 0.020000 0.034641
    endloop
  endfacet
  facet normal 0.998731 -0.019275 -0.046533
    outer loop
      vertex -0.010000 0.000000 0.000000
      vertex -0.008000 0.020000 0.034641
      vertex -0.008000 0.010353 0.038637
    endloop
  endfacet
  facet normal 0.998731 -0.006574 -0.049937
    outer loop
      vertex -0.010000 0.000000 0.000000
      vertex -0.008000 0.010353 0.038637
      vertex -0.008000 0.000000 0.040000
    endloop
  endfacet
  facet normal 0.998731 0.006574 -0.049937
    outer loop
      vertex -0.010000 0.000000 0.000000
      vertex -0.008000 0.000000 0.040000
      vertex -0.008000 -0.010353 0.038637
    endloop
  endfacet
  facet normal 0.998731 0.019275 -0.046533
    outer loop
      vertex -0.010000 0.000000 0.000000
      vertex -0.008000 -0.010353 0.038637
      vertex -0.008000 -0.020000 0.034641
    endloop
  endfacet
  facet normal 0.998731 0.030662 -0.039959
    outer loop
      vertex -0.010000 0.000000 0.000000
      vertex -0.008000 -0.020000 0.034641
      vertex -0.008000 -0.028284 0.028284
    endloop
  endfacet
  facet normal 0.998731 0.039959 -0.030662
    outer loop
      vertex -0.010000 0.000000 0.000000
      vertex -0.008000 -0.028284 0.028284
      vertex -0.008000 -0.034641 0.020000
    endloop
  endfacet
  facet normal 0.998731 0.046533 -0.019275
    outer loop
      vertex -0.010000 0.000000 0.000000
      vertex -0.008000 -0.034641 0.020000
      vertex -0.008000 -0.038637 0.010353
    endloop
  endfacet
  facet normal 0.998731 0.049937 -0.006574
    outer loop
      vertex -0.010000 0.000000 0.000000
      vertex -0.008000 -0.038637 0.010353
      vertex -0.008000 -0.040000 0.000000
    endloop
  endfacet
  facet normal 0.998731 0.049937 0.006574
    outer loop
      vertex -0.010000 0.000000 0.000000
      vertex -0.008000 -0.040000 0.000000
      vertex -0.008000 -0.038637 -0.010353
    endloop
  endfacet
  facet normal 0.998731 0.046533 0.019275
    outer loop
      vertex -0.010000 0.000000 0.000000
      vertex -0.008000 -0.038637 -0.010353
      vertex -0.008000 -0.034641 -0.020000
    endloop
  endfacet
  facet normal 0.998731 0.039959 0.030662
    outer loop
      vertex -0.010000 0.000000 0.000000
      vertex -0.008000 -0.034641 -0.020000
      vertex -0.008000 -0.028284 -0.028284
    endloop
  endfacet
  facet normal 0.998731 0.030662 0.039959
    outer loop
      vertex -0.010000 0.000000 0.000000
      vertex -0.008000 -0.028284 -0.028284
      vertex -0.008000 -0.020000 -0.034641
    endloop
  endfacet
  facet normal 0.998731 0.019275 0.046533
    outer loop
      vertex -0.010000 0.000000 0.000000
      vertex -0.008000 -0.020000 -0.034641
      vertex -0.008000 -0.010353 -0.038637
    endloop
  endfacet
  facet normal 0.998731 0.006574 0.049937
    outer loop
      vertex -0.010000 0.000000 0.000000
      vertex -0.008000 -0.010353 -0.038637
      vertex -0.008000 0.000000 -0.040000
    endloop
  endfacet
  facet normal 0.998731 -0.006574 0.049937
    outer loop
      vertex -0.010000 0.000000 0.000000
      vertex -0.008000 0.000000 -0.040000
      vertex -0.008000 0.010353 -0.038637
    endloop
  endfacet
  facet normal 0.998731 -0.019275 0.046533
    outer loop
      vertex -0.010000 0.000000 0.000000
      vertex -0.008000 0.010353 -0.038637
      vertex -0.008000 0.020000 -0.034641
    endloop
  endfacet
  facet normal 0.998731 -0.030662 0.039959
    outer loop
      vertex -0.010000 0.000000 0.000000
      vertex -0.008000 0.020000 -0.034641
      vertex -0.008000 0.028284 -0.028284
    endloop
  endfacet
  facet normal 0.998731 -0.039959 0.030662
    outer loop
      vertex -0.010000 0.000000 0.000000
      vertex -0.008000 0.028284 -0.028284
      vertex -0.008000 0.034641 -0.020000
    endloop
  endfacet
  facet normal 0.998731 -0.046533 0.019275
    outer loop
      vertex -0.010000 0.000000 0.000000
      vertex -0.008000 0.034641 -0.020000
      vertex -0.008000 0.038637 -0.010353
    endloop
  endfacet
  facet normal 0.998731 -0.049937 0.006574
    outer loop
      vertex -0.010000 0.000000 0.000000
      vertex -0.008000 0.038637 -0.010353
      vertex -0.008000 0.040000 0.000000
    endloop
  endfacet
endsolid dummy_character_lamp_shade
